<!DOCTYPE svg PUBLIC "-//W3C//DTD SVG 1.1//EN" "http://www.w3.org/Graphics/SVG/1.1/DTD/svg11.dtd">
<svg version="1.1" id="Layer_1" xmlns="http://www.w3.org/2000/svg" xmlns:xlink="http://www.w3.org/1999/xlink" x="0px" y="0px"
	 viewBox="0 0 262 95" enable-background="new 0 0 262 95" xml:space="preserve">
<g>
	<g>
		<path fill="#BCBEC0" d="M80.8,64.8l-3.7-0.3c-2.2-0.2-2.4-0.3-2.7-4.8l0-0.7c-0.6-10.1-0.7-22.3-0.9-32.1c0-2.7-0.1-5.1-0.1-7.2
			c-0.1-6,0.4-6.2,4.7-6.6l2.5-0.2l0.5-0.4c1-0.8,1.1-2.2,1.1-2.8c-0.1-1.2-0.5-2.1-1.3-2.6l-0.5-0.4l-0.7,0C77,6.9,73.9,7,71.6,7
			c-1.8,0-3.7,0-6.7-0.3l-2-0.2l-0.1,2c-0.2,3.4-2.4,7.9-5.9,14.8l-0.9,1.8l-9.3,18.7c-1.5,3.1-3.1,6.2-4.7,9.2
			c-1.3-2.4-2.5-4.9-3.8-7.5l-0.9-1.9L26.7,22.7c-1.2-2.5-5-10.1-4.6-13.9l0.2-2.3L20,6.7C17.1,7,14.7,7,12.6,7
			c-2.1,0-4.3-0.1-7.1-0.3l-0.5,0L4.5,6.9C3.6,7.3,3,8.1,2.8,9.1c-0.1,0.4-0.3,1.9,0.7,3l0.5,0.6L6.2,13c4.2,0.5,4.6,0.7,4.4,5.8
			c-0.2,4.4-0.5,12.1-1,20.1c-0.5,8.9-1,13.9-1.6,19.9c-0.4,5.2-0.9,5.2-4,5.7l-2.6,0.3L1,65.2c-0.7,0.6-1,1.4-1,2.4
			c0,0.9,0.3,2.1,1.2,2.8L1.8,71l0.8,0c3-0.2,6.3-0.3,9.3-0.3c3.6,0,7.1,0.1,10.1,0.3l0.5,0l0.4-0.2c0.9-0.4,1.5-1.2,1.7-2.3
			c0.2-1.3-0.2-2.5-1.1-3.2l-0.5-0.4l-4.1-0.3c-1.9-0.1-2.3-0.2-2.3-6.5c0-7.4,0.3-15.2,0.6-21.2c0.1-2.8,0.3-5.7,0.5-8.6
			c0.1,0.3,0.2,0.5,0.3,0.8c0.8,1.9,1.6,3.7,2.5,5.5L28.6,52c0.3,0.7,0.7,1.5,1.1,2.3c2.2,4.6,5.6,11.6,6.9,15.6l0.1,0.3l0.2,0.2
			c0.6,0.9,1.7,1.2,2.5,1.2c1.1,0,2-0.4,2.5-1.2l0.1-0.2l0.1-0.2c1.5-3.8,5.5-12,9.8-20.5l8.2-15.8c0.7-1.3,1.6-3.1,2.5-5l0.2,30.1
			c0,5.5,0,5.5-2.7,5.8l-3.4,0.3l-0.5,0.5c-0.7,0.7-1,1.7-0.9,2.7c0.1,1.1,0.6,2,1.4,2.5l0.6,0.4l0.7,0c3.5-0.2,7.6-0.3,11-0.3
			c3.4,0,7.1,0.1,10.7,0.3l0.6,0l0.5-0.3c0.8-0.5,1.4-1.3,1.5-2.4c0.2-1.1-0.2-2.2-0.9-3L80.8,64.8z"/>
	</g>
	<g>
		<path fill="#BCBEC0" d="M99,29.8c-12.3,0-21.5,9.2-21.5,21.5c0,11.9,8.7,20.6,20.8,20.6c12.6,0,21.3-8.8,21.3-21.4
			C119.6,38.7,110.8,29.8,99,29.8z M99.2,65.3c-6.8,0-9.9-7.9-9.9-15.2c0-8.3,3.4-13.7,8.6-13.7c7.8,0,9.9,9.8,9.9,15.5
			C107.8,55.1,107.2,65.3,99.2,65.3z"/>
	</g>
	<g>
		<path fill="#BCBEC0" d="M143.7,29.8c-12.3,0-21.5,9.2-21.5,21.5c0,11.9,8.7,20.6,20.8,20.6c12.6,0,21.3-8.8,21.3-21.4
			C164.3,38.7,155.4,29.8,143.7,29.8z M143.9,65.3c-6.8,0-9.9-7.9-9.9-15.2c0-8.3,3.4-13.7,8.6-13.7c7.8,0,9.9,9.8,9.9,15.5
			C152.5,55.1,151.8,65.3,143.9,65.3z"/>
	</g>
	<g>
		<path fill="#BCBEC0" d="M192.4,64c-2.2,0-4.2,0.1-6.2,0.2c-1.7,0.1-3.3,0.1-4.7,0.1c-2.6,0-4.5-0.8-4.5-1.9c0-0.7,0.4-1.7,2.5-3
			l0.2,0c0.9,0.1,2,0.2,3.4,0.2c8.7,0,17.4-5.1,17.4-16.3c0-0.9,0-1.8,0-2.7h4.6l0.2,0c1.5-0.2,2.6-1.4,2.8-3.2
			c0.2-1.5-0.1-3.4-1.7-4.2l-0.4-0.2h-7.9c-1.6,0-1.9,0-4.8-1.3c-1.4-0.6-5.1-2-9.6-2c-9.5,0-16.9,6.9-16.9,15.6
			c0,6.2,3.8,9.9,6.2,11.6c-1.5,1.5-3,2.8-4.3,3.6c-1,0.7-2.2,1.6-2.2,3.1c0,3.3,2.6,6.7,6.2,8.3c-0.7,0.7-1.4,1.3-2.1,2l-0.2,0.2
			c-1.3,1.3-2.6,2.5-3.6,3.6c-1,1.1-1.5,2.7-1.5,4.6c0,4.6,3.6,12.4,17.2,12.4c13.7,0,24.8-8.6,24.8-19.1
			C207.2,68,202.2,64,192.4,64z M186.3,87.2c-6.4,0-10.3-2.7-10.3-7c0-2.8,1.9-5,3.5-6c0,0,1.2-0.7,6.8-0.7h3.1c7.5,0,8.5,3,8.5,5.9
			C197.9,83.9,192.9,87.2,186.3,87.2z M190,45.7c0,4.8-2,7.5-5.6,7.5c-3.1,0-6.4-3-6.4-8.7c0-4.8,2.4-8.2,5.8-8.2
			C189.7,36.3,190,44.1,190,45.7z"/>
	</g>
	<g>
		<path fill="#BCBEC0" d="M227.2,65.1l-0.4-0.3l-2.7-0.3c-1.8-0.2-1.8-0.2-1.8-6V15.7c0-3.4,0.1-7.1,0.2-9.9l0.1-1.8l-0.2-0.4
			c-0.5-1-1.5-1.6-2.7-1.6h-0.5l-0.4,0.2c-3.1,1.6-7.3,3-9.6,3.7L209,6l-0.2,0.1c-0.8,0.5-1.3,1.4-1.3,2.6c0,1.1,0.5,2.1,1.3,2.6
			l0.9,0.5c1.9,1.1,1.9,1.1,1.9,5.8v40.9c0,5.7,0,5.7-1.8,6l-2.6,0.3l-0.4,0.3c-0.9,0.6-1.3,1.8-1.2,3c0.1,1.2,0.8,2.2,1.8,2.6
			l0.4,0.2l0.5,0c2.8-0.2,5.5-0.3,8.7-0.3c3,0,5.6,0.1,8.8,0.3l0.5,0l0.4-0.2c1-0.4,1.6-1.4,1.8-2.6
			C228.6,66.9,228.1,65.7,227.2,65.1z"/>
	</g>
	<g>
		<path fill="#BCBEC0" d="M261.9,61.3c-0.2-1.7-1.5-2.9-3.1-2.9c-0.3,0-0.7,0.1-1,0.2l-0.6,0.2l-0.4,0.5c-2.5,3.1-4.5,3.7-6.9,3.7
			c-9.2,0-13.3-7.5-13.3-15c0-0.1,0-0.3,0-0.5c0.1,0,0.3,0,0.5,0h17c4.3,0,6.3,0,7.2-1.7c0.4-0.8,0.6-1.8,0.6-3.2
			c0-6.3-5.6-12.7-15-12.7c-11.6,0-20.4,9.6-20.4,22.4c0,3.4,0.7,8.4,4.3,13c3.3,4.3,8.7,6.7,14.9,6.7c5.3,0,12.7-2.5,16.2-9.5
			l0.2-0.5L261.9,61.3z M251,40.4c-0.7,0.2-2.6,0.4-8.1,0.4h-4.6c1.2-2,4.2-4.4,7.6-4.4c3.2,0,5.1,1.4,5.1,3.8
			C251,40.3,251,40.3,251,40.4z"/>
	</g>
</g>
<g>
	<path fill="#FFFFFF" d="M40.6,67.6c-0.4,0-1.2-0.2-1.6-0.8l-0.1-0.1l0-0.1c-1.3-4-4.6-11-6.9-15.7c-0.4-0.9-0.8-1.6-1.1-2.3
		l-8.2-17.5c-0.8-1.8-1.6-3.6-2.4-5.5c-0.7-1.5-1.3-3-2-4.5c-0.3,4.4-0.5,8.6-0.7,12.7C17.3,39.8,17,47.6,17,55
		c0,6.9,0.7,7.3,3.2,7.5l3.8,0.3l0.2,0.2c0.6,0.5,0.9,1.4,0.7,2.3c-0.1,0.7-0.5,1.3-1.1,1.6l-0.2,0.1l-0.2,0c-3-0.2-6.5-0.3-10-0.3
		c-3,0-6.2,0.1-9.2,0.3l-0.4,0l-0.3-0.2c-0.6-0.5-0.9-1.4-0.9-2.1c0-0.7,0.2-1.3,0.7-1.6l0.2-0.2l2.3-0.3c3.3-0.5,4.3-0.6,4.8-6.6
		c0.5-5.9,1-11,1.5-19.9c0.5-8.1,0.8-15.7,1-20.2c0.2-5.4-0.4-6.2-5.3-6.8L6.1,8.8L5.9,8.5C5.4,7.9,5.3,7,5.4,6.4
		C5.6,5.6,6,5.1,6.5,4.8l0.2-0.1l0.3,0C9.9,4.9,12,5,14.1,5c2.1,0,4.5,0,7.5-0.3l1.1-0.1l-0.1,1.1c-0.4,3.6,2.5,10,4.6,14.4
		l10.4,20.9l0.9,1.9c1.6,3.2,3,6.2,4.6,9.1c1.9-3.5,3.8-7.2,5.5-10.8l9.2-18.7l0.9-1.8c3.5-6.9,5.7-11.5,5.9-15.2l0-1l1,0.1
		C68.8,5,70.7,5,72.5,5c2.4,0,5.4-0.1,8-0.3l0.3,0l0.3,0.2c0.7,0.5,0.8,1.3,0.8,1.8c0,0.4,0,1.4-0.7,2l-0.2,0.2L78.9,9
		c-4.9,0.5-5.6,1.4-5.5,7.6c0,2.1,0.1,4.6,0.1,7.2c0.1,9.8,0.3,22,0.9,32.1l0,0.7c0.3,4.3,0.4,5.5,3.5,5.8l3.3,0.3l0.2,0.2
		c0.5,0.5,0.7,1.3,0.6,2.1c-0.1,0.7-0.5,1.3-1,1.6l-0.2,0.1l-0.3,0c-3.6-0.2-7.3-0.3-10.7-0.3c-3.4,0-7.5,0.1-11,0.3l-0.3,0
		l-0.3-0.2c-0.5-0.4-0.9-1-0.9-1.8c-0.1-0.8,0.2-1.5,0.6-1.9l0.2-0.2l3-0.3c3.5-0.4,3.6-0.8,3.6-6.8l-0.2-34.3
		c-0.4,0.9-0.9,1.9-1.4,2.9c-1,2.1-2.1,4.3-2.9,5.8L52.2,46c-4.3,8.5-8.3,16.7-9.8,20.6l0,0.1l-0.1,0.1C42,67.3,41.4,67.6,40.6,67.6
		z"/>
	<path fill="#FFFFFF" d="M99,67.9c-11.3,0-19.6-8.2-19.6-19.6c0-11.7,8.7-20.5,20.3-20.5c11.1,0,19.4,8.5,19.4,19.7
		C119.1,59.5,110.8,67.9,99,67.9z M98.6,32.4c-5.8,0-9.5,5.8-9.5,14.7c0,7.8,3.4,16.2,10.8,16.2c8.8,0,9.5-11,9.5-14.4
		C109.4,42.8,107.1,32.4,98.6,32.4z"/>
	<path fill="#FFFFFF" d="M143.2,67.9c-11.3,0-19.6-8.2-19.6-19.6c0-11.7,8.7-20.5,20.3-20.5c11.1,0,19.4,8.5,19.4,19.7
		C163.3,59.5,155,67.9,143.2,67.9z M142.8,32.4c-5.8,0-9.5,5.8-9.5,14.7c0,7.8,3.4,16.2,10.8,16.2c8.8,0,9.5-11,9.5-14.4
		C153.6,42.8,151.3,32.4,142.8,32.4z"/>
	<path fill="#FFFFFF" d="M182.2,91c-12.7,0-16-7.2-16-11.5c0-1.7,0.4-3.1,1.2-4c1-1,2.2-2.2,3.5-3.5c0.9-0.9,1.8-1.8,2.7-2.6
		c0.3-0.3,0.5-0.6,0.7-0.7c-3.9-1.2-6.9-4.6-6.9-7.9c0-1,0.7-1.6,1.8-2.3c1.4-0.9,3.1-2.3,4.7-4.1c0.2-0.2,0.3-0.5,0.4-0.6
		c-2.2-1.3-6.6-4.9-6.6-11.4c0-8.2,6.9-14.6,15.8-14.6c4.3,0,7.8,1.3,9.1,1.9c2.9,1.2,3.3,1.4,5.2,1.4h7.6l0.2,0.1
		c1,0.5,1.3,1.9,1.1,3.1c-0.2,1.4-0.9,2.3-2,2.4l-0.1,0H199c0.1,1.2,0.1,2.5,0.1,3.7c0,10.6-8.1,15.3-16.2,15.3
		c-1.3,0-2.3-0.1-3.2-0.2c-0.2,0-0.4,0-0.5-0.1c-1,0.6-3.3,2.1-3.3,4c0,1.7,2.1,2.9,5.4,2.9c1.4,0,3-0.1,4.7-0.1
		c2-0.1,4-0.1,6.1-0.1c3.4,0,13.7,0,13.7,10.9C205.8,82.9,195.2,91,182.2,91z M186.1,69.5c-5.6,0-7,0.6-7.3,0.8
		c-1.8,1.1-3.9,3.6-3.9,6.8c0,4.9,4.3,8,11.2,8c7.1,0,12.5-3.8,12.5-8.7c0-3-1-6.9-9.4-6.9H186.1z M183.6,32.3
		c-3.9,0-6.7,3.8-6.7,9.2c0,6.3,3.8,9.7,7.3,9.7c4.1,0,6.5-3.2,6.5-8.5C190.8,37.7,188.9,32.3,183.6,32.3z"/>
	<path fill="#FFFFFF" d="M207.3,66.8c-0.6-0.3-1-0.9-1.1-1.8c-0.1-0.9,0.2-1.7,0.8-2.1l0.2-0.1l2.3-0.3c2.5-0.3,2.6-0.4,2.6-6.9
		V14.6c0-5.3-0.1-5.4-2.4-6.7l-0.9-0.5c-0.5-0.3-0.8-0.9-0.8-1.7c0-0.8,0.3-1.4,0.8-1.7l0.1-0.1l0.1,0c2.3-0.7,6.5-2.1,9.7-3.7
		l0.2-0.1h0.2c0.8,0,1.4,0.4,1.8,1.1l0.1,0.2L221,2.8c-0.1,2.8-0.2,6.5-0.2,9.9v42.8c0,6.6,0.2,6.6,2.6,6.9l2.4,0.3l0.2,0.1
		c0.6,0.4,0.9,1.2,0.8,2.1c-0.1,0.9-0.5,1.5-1.1,1.8l-0.2,0.1l-0.2,0c-3.1-0.2-5.8-0.3-8.8-0.3c-3.1,0-5.9,0.1-8.7,0.3l-0.2,0
		L207.3,66.8z"/>
	<path fill="#FFFFFF" d="M244.7,67.9c-5.8,0-10.8-2.3-13.9-6.3c-3.3-4.3-4-9.1-4-12.3c0-12.2,8.3-21.4,19.2-21.4
		c8.7,0,13.9,6,13.9,11.7c0,1.2-0.2,2.2-0.5,2.8c-0.6,1.1-2,1.2-6.2,1.2h-16.8c-0.3,0-1.3,0-1.5,0.1c0,0.1,0,1,0,1.4
		c0,8,4.4,16,14.1,16c2.6,0,4.9-0.7,7.6-4.1l0.2-0.2l0.3-0.1c0.2-0.1,0.5-0.1,0.7-0.1c1.1,0,2,0.8,2.1,2l0,0.3l-0.1,0.2
		C256.6,65.6,249.7,67.9,244.7,67.9z M242,38.9c2,0,7.9,0,8.9-0.7c0,0,0.2-0.2,0.2-1c0-2.3-1.6-4.8-6-4.8c-4.7,0-8.5,4-9.1,6.4H242z
		"/>
</g>
<g>
	<path fill="#494C56" d="M206.6,32.9c-0.1-0.8-0.5-1.4-1.1-1.7l-0.2-0.1h-1.8c0.3,0.2,0.5,0.3,0.8,0.3
		C205.3,31.5,206.2,32.1,206.6,32.9z"/>
	<path fill="#494C56" d="M11.3,49.1c0,0.1,0,0.3,0,0.4c0.1-0.1,0.1-0.1,0.2-0.2C11.3,49.3,11.3,49.2,11.3,49.1z"/>
	<path fill="#494C56" d="M13.8,39.9c-0.1-1.2-0.8-1.9-1.7-2.2c-0.3,4.6-0.6,8.2-0.8,11.5c0,0.1,0.1,0.1,0.1,0.2
		c-0.1,0.1-0.1,0.1-0.2,0.2c-0.2,2.2-0.4,4.3-0.6,6.4c-0.2,1.8-0.4,3.1-0.7,4c1.9,1.8,5.1,0.4,5.6-2.2c0.5-0.1,0.9-0.2,1.4-0.4
		c0-0.7,0-1.5,0-2.3c0-2.3,0-4.6,0.1-6.9C14.3,46.3,14,42.9,13.8,39.9z"/>
	<path fill="#494C56" d="M26.4,23.1c0.6,5.1,0.4,10.5,3.6,14.8c2.5,3.3,5.4,6.3,9.5,6.9c-0.3-0.6-0.6-1.2-0.9-1.8l-0.9-1.9l-10-20.2
		C26.8,21.2,26.3,21.9,26.4,23.1z"/>
	<path fill="#494C56" d="M73.4,18.7c0-0.7,0-1.4,0-2c-0.1-6.3,0.6-7.2,5.5-7.6l2.2-0.2l0.2-0.2C82,8.1,82,7.1,82,6.7
		c0-0.5-0.2-1.4-0.8-1.8l-0.3-0.2l-0.3,0c-2.6,0.2-5.6,0.3-8,0.3c-1.8,0-3.7,0-6.7-0.3l-1-0.1l0,1c-0.2,3.6-2.4,8.2-5.9,15.2
		l-0.9,1.8l-3.2,6.4c0.4-0.1,0.7-0.3,1-0.6c1.9-1.7,4.3-2.3,6.8-2.9c0.2-0.4,0.4-0.8,0.6-1.2c0.5-1,1-2,1.4-2.9l0,3.6
		c0.7-0.2,1.5-0.5,2.2-0.8C69.7,23,71.2,20.6,73.4,18.7z"/>
	<path fill="#494C56" d="M85.3,33.6c-3.7,3.7-5.9,8.8-5.9,14.7c0,5.1,1.7,9.6,4.6,13C87.3,52.3,87.8,42.9,85.3,33.6z"/>
	<path fill="#494C56" d="M61.2,62.5l-3,0.3L58,63c-0.5,0.5-0.7,1.2-0.6,1.9c0.1,0.8,0.4,1.4,0.9,1.8l0.3,0.2l0.3,0
		c3.5-0.2,7.6-0.3,11-0.3c3.3,0,7,0.1,10.7,0.3l0.3,0l0.2-0.1c0.5-0.3,0.9-0.9,1-1.6c0.1-0.8-0.1-1.6-0.6-2.1l-0.2-0.2L78,62.5
		c-3.1-0.3-3.3-1.4-3.5-5.8l0-0.7c-0.1-1.4-0.2-2.9-0.2-4.4c-0.4,0.3-0.8,0.7-1,1.3c-1.5,4.1-4.9,5-8.4,5.8
		C64.7,61.9,64.1,62.2,61.2,62.5z"/>
	<path fill="#494C56" d="M138.1,34c1.3-1,2.9-1.6,4.7-1.6c1.6,0,2.9,0.4,4.1,1c2.8-0.1,5.8-0.5,8-2.3c-3.1-2.1-6.9-3.3-11-3.3
		c-11.3,0-19.8,8.4-20.3,19.6c2.4-3.2,4-7.1,6.9-9.9C132.6,35.4,135.3,34.5,138.1,34z"/>
	<path fill="#494C56" d="M110.6,31c-0.9,2.3-0.8,4.7,0.1,7.2c1.9,5.2,5.9,8,4.4,14.1c-0.9,3.6-1.9,6.9-1.5,9.9
		c3.5-3.6,5.6-8.7,5.6-14.6C119.1,40.4,115.8,34.5,110.6,31z"/>
	<path fill="#494C56" d="M197.3,62.5c0,0.1,0,0.2,0,0.3c0.9,4.6,4.1,8.7,8.4,10.7c0-0.2,0-0.3,0-0.5
		C205.8,65.8,201.3,63.3,197.3,62.5z"/>
	<path fill="#494C56" d="M185.9,54c-1,0.1-1.8,0.8-2.2,1.7c7.8-0.3,15.4-5.1,15.4-15.3c0-1.2,0-2.4-0.1-3.7h5.6l0.1,0
		c0.8-0.1,1.5-0.8,1.8-1.8c0-0.1,0-0.1,0-0.2c0,0.1,0,0.1,0,0.2c0.1-0.2,0.1-0.4,0.1-0.6c0.1-0.5,0.1-0.9,0-1.4
		c-0.4-0.8-1.3-1.4-2.3-1.5c-0.3,0-0.6-0.1-0.8-0.3h-5.8c-1.8,0-2.3-0.1-5-1.3c0.3,3.7,0.6,7.3,1.3,10.9
		C195.2,46.9,193.1,53,185.9,54z"/>
	<path fill="#494C56" d="M206.5,34.7c0,0.1,0,0.1,0,0.2l0,0C206.5,34.8,206.5,34.8,206.5,34.7z"/>
	<path fill="#494C56" d="M173.5,77.4c-0.3-2.5-1.5-3.8-3.1-4.8c-1.1,1.1-2.2,2.1-3,3c-0.8,0.9-1.2,2.3-1.2,4c0,2.2,0.9,5.1,3.5,7.5
		c0.2-0.2,0.3-0.3,0.5-0.5C172.2,83.9,173.9,80.8,173.5,77.4z"/>
	<path fill="#494C56" d="M163.3,47.5c0-2.1-0.3-4-0.8-5.9c-0.7,1.3-1.3,2.7-1.7,4c-1.1,4-1.1,6.9-4.5,9.8c-4.6,4-8.8,7.5-12.3,12.4
		C155.4,67.5,163.3,59.2,163.3,47.5z"/>
	<path fill="#494C56" d="M181.4,27.9c-5.7,0.6-10.4,4-12.5,8.7c2.3-0.3,5.2-0.9,6.8-2.1C177.9,32.9,180,30.5,181.4,27.9z"/>
	<path fill="#494C56" d="M216.3,19.1c0.7-3.2,1.3-7.1,1.1-10.7c1.3-0.4,2.6-1,3.5-2c0-1.3,0.1-2.5,0.1-3.6l0.1-1.5l-0.1-0.2
		c-0.3-0.7-1-1.1-1.8-1.1h-0.2l-0.2,0.1c-3.2,1.7-7.4,3-9.7,3.7l-0.1,0l-0.1,0.1c-0.5,0.3-0.8,0.9-0.8,1.7c0,0.8,0.3,1.4,0.8,1.7
		l0.9,0.5c2.3,1.4,2.4,1.4,2.4,6.7V28C214.5,25.9,215.6,22.6,216.3,19.1z"/>
	<path fill="#494C56" d="M219.8,38.1c-0.1,4.8-5.4,7.9-4.8,13.1c0.4,3.9,3.2,4.9,5.8,6.7c0-0.7,0-1.4,0-2.3V36.2
		C220.2,36.6,219.8,37.2,219.8,38.1z"/>
	<path fill="#494C56" d="M239.2,60.5c-2.4-2.4-5.7-2.1-7.1-5.9c-2.2-6.2-1.3-14.2,0.4-20.9c-3.6,3.8-5.7,9.3-5.7,15.5
		c0,3.3,0.7,8.1,4,12.3c3.1,4,8.2,6.3,13.9,6.3c0.2,0,0.3,0,0.5,0C241.9,67.1,241.4,62.7,239.2,60.5z"/>
	<path fill="#494C56" d="M246,27.8c-0.5,0-0.9,0-1.4,0.1c3.3,1.5,6.5,4.9,7.5,7.8c0.1,0.3,0.2,0.6,0.3,1c0.2,0.9,0.5,1.7,1,2.4
		c0.9,1.7,2.2,3.1,4.6,3.2c0.6,0,1.1,0,1.6-0.2c0.3-0.6,0.4-1.5,0.4-2.6C259.9,33.8,254.7,27.8,246,27.8z"/>
	<path fill="#494C56" d="M15.6,8.2c4.2,0.8,7.3,3.7,9.1,7.5c0.2,0.5,0.6,0.9,1,1.1c-1.7-3.9-3.3-8.3-3-11l0.1-1.1l-1.1,0.1
		C18.7,5,16.3,5,14.1,5C12.1,5,10,4.9,7.3,4.7C9.7,7.2,11.9,7.5,15.6,8.2z"/>
	<path fill="#494C56" d="M206.5,34.9c0,0.1,0,0.2,0,0.2c0,0,0,0,0,0C206.5,35,206.5,35,206.5,34.9L206.5,34.9z"/>
	<path fill="#494C56" d="M206.6,34.3c0,0.2-0.1,0.4-0.1,0.6c0,0.1,0,0.2,0,0.2c0.5-0.8,0.5-1.6,0.1-2.2
		C206.7,33.3,206.7,33.8,206.6,34.3z"/>
</g>
</svg>
